Coordinates
version=1
nRows=43
nColumns=12
inDegrees=yes

Units are S.I. units (second, meters, Newtons, ...)
Angles are in degrees

endheader
time	SC_y	SC_z	SC_x	AC_y	AC_z	AC_x	GH_y	GH_z	GH_yy	EL_x	PS_y
       0.0              -18.31          32.82          30.15          68.53          2.034         -2.637          129.4          33.31          99.36          50.92          97.74
   0.03152              -18.32          32.82          30.15          68.53          2.033         -2.634          129.4          33.31          99.35          50.92          97.75
   0.06303              -18.32          32.82          30.15          68.53          2.032         -2.632          129.4          33.31          99.35          50.92          97.76
   0.09455              -18.33          32.82          30.16          68.53          2.031         -2.629          129.3           33.3          99.35          50.93          97.77
    0.1261              -18.33          32.81          30.16          68.53          2.029         -2.626          129.3           33.3          99.34          50.93          97.78
    0.1576              -18.34          32.81          30.17          68.53          2.028         -2.623          129.3           33.3          99.33          50.94          97.79
    0.1891              -18.35          32.81          30.17          68.53          2.026         -2.619          129.3           33.3          99.33          50.94           97.8
    0.2206              -18.35          32.81          30.18          68.53          2.025         -2.616          129.2           33.3          99.32          50.94          97.81
    0.2521              -18.36           32.8          30.18          68.53          2.023         -2.612          129.2           33.3          99.32          50.95          97.82
    0.2836              -18.37           32.8          30.19          68.53          2.021         -2.608          129.2           33.3          99.31          50.95          97.83
    0.3152              -18.38           32.8          30.19          68.53          2.019         -2.603          129.2          33.29           99.3          50.96          97.85
    0.3467              -18.38           32.8           30.2          68.53          2.017         -2.599          129.1          33.29          99.29          50.97          97.86
    0.3782              -18.39          32.79          30.21          68.53          2.014         -2.594          129.1          33.29          99.28          50.97          97.88
    0.4097               -18.4          32.79          30.22          68.53          2.012         -2.588          129.0          33.29          99.27          50.98          97.89
    0.4412              -18.42          32.78          30.22          68.53          2.009         -2.582          129.0          33.28          99.26          50.99          97.91
    0.4727              -18.43          32.78          30.23          68.53          2.006         -2.575          129.0          33.28          99.25           51.0          97.93
    0.5043              -18.44          32.77          30.24          68.53          2.002         -2.568          128.9          33.28          99.24          51.01          97.96
    0.5358              -18.46          32.77          30.25          68.53          1.999         -2.561          128.8          33.27          99.23          51.02          97.98
    0.5673              -18.47          32.76          30.27          68.53          1.995         -2.552          128.8          33.27          99.21          51.03          98.01
    0.5988              -18.49          32.76          30.28          68.53           1.99         -2.543          128.7          33.27           99.2          51.04          98.03
    0.6303              -18.51          32.75          30.29          68.52          1.986         -2.533          128.6          33.26          99.18          51.05          98.07
    0.6618              -18.53          32.74          30.31          68.52           1.98         -2.522          128.6          33.26          99.16          51.07           98.1
    0.6934              -18.55          32.73          30.33          68.52          1.975         -2.509          128.5          33.25          99.14          51.08          98.14
    0.7249              -18.58          32.72          30.35          68.52          1.968         -2.496          128.4          33.25          99.11           51.1          98.18
    0.7564               -18.6          32.71          30.37          68.52          1.961         -2.481          128.3          33.24          99.09          51.12          98.23
    0.7879              -18.64           32.7          30.39          68.52          1.953         -2.464          128.2          33.23          99.06          51.14          98.28
    0.8194              -18.67          32.69          30.42          68.52          1.944         -2.445          128.0          33.22          99.02          51.16          98.34
    0.8509              -18.71          32.67          30.45          68.52          1.934         -2.423          127.9          33.21          98.99          51.19          98.41
    0.8825              -18.75          32.66          30.48          68.52          1.923         -2.399          127.7           33.2          98.94          51.22          98.48
     0.914              -18.81          32.64          30.52          68.52           1.91         -2.372          127.5          33.19           98.9          51.26          98.57
    0.9455              -18.86          32.62          30.57          68.52          1.895         -2.341          127.3          33.18          98.84           51.3          98.66
     0.977              -18.93          32.59          30.62          68.51          1.879         -2.305          127.0          33.16          98.78          51.34          98.78
     1.009              -19.01          32.56          30.68          68.51          1.859         -2.263          126.7          33.14          98.71           51.4           98.9
      1.04               -19.1          32.53          30.75          68.51          1.837         -2.215          126.4          33.12          98.62          51.46          99.05
     1.072               -19.2          32.49          30.83          68.51           1.81         -2.159          126.0           33.1          98.53          51.53          99.23
     1.103              -19.32          32.45          30.92           68.5          1.779         -2.093          125.5          33.07          98.41          51.62          99.44
     1.135              -19.47          32.39          31.04           68.5          1.742         -2.014          124.9          33.03          98.27          51.72          99.68
     1.166              -19.64          32.33          31.17          68.49          1.698         -1.919          124.3          32.99          98.11          51.84          99.98
     1.198              -19.86          32.25          31.33          68.49          1.644         -1.805          123.4          32.94          97.91          51.98          100.3
     1.229              -20.12          32.15          31.53          68.48          1.578         -1.666          122.4          32.88          97.66          52.16          100.8
     1.261              -20.44          32.03          31.78          68.47          1.497         -1.493          121.2           32.8          97.36          52.39          101.3
     1.292              -20.83          31.89          32.09          68.46          1.396         -1.278          119.7           32.7          96.99          52.66          102.0
     1.324              -21.34           31.7          32.47          68.45          1.269         -1.008          117.7          32.58          96.52          53.01          102.8
